<?xml version="1.0" encoding="UTF-8" standalone="no"?>
<!DOCTYPE svg PUBLIC "-//W3C//DTD SVG 1.1//EN" "http://www.w3.org/Graphics/SVG/1.1/DTD/svg11.dtd">
<svg width="100%" height="100%" viewBox="0 0 2422 800" version="1.1" xmlns="http://www.w3.org/2000/svg" xmlns:xlink="http://www.w3.org/1999/xlink" xml:space="preserve" xmlns:serif="http://www.serif.com/" style="fill-rule:evenodd;clip-rule:evenodd;stroke-linejoin:round;stroke-miterlimit:2;">
    <g transform="matrix(1,0,0,1,-1186,-160)">
        <g id="Schriftzug" transform="matrix(1,0,0,1,67.6672,-539)">
            <g id="Text--Hannover-" serif:id="Text &quot;Hannover&quot;" transform="matrix(1,0,0,1,0,27.5893)">
                <g transform="matrix(1.371,0,0,1.371,233.276,340.56)">
                    <path d="M1751.18,634.255L1760.1,634.255C1768.83,634.255 1775.28,632.799 1779.44,629.887C1783.6,626.976 1785.68,622.4 1785.68,616.16C1785.68,609.98 1783.55,605.583 1779.31,602.968C1775.06,600.353 1768.48,599.046 1759.56,599.046L1751.18,599.046L1751.18,634.255ZM1751.18,656.718L1751.18,706.724L1723.55,706.724L1723.55,576.405L1761.52,576.405C1779.23,576.405 1792.33,579.629 1800.83,586.076C1809.33,592.524 1813.58,602.314 1813.58,615.447C1813.58,623.113 1811.47,629.932 1807.25,635.904C1803.03,641.876 1797.06,646.556 1789.33,649.943C1808.94,679.24 1821.72,698.167 1827.66,706.724L1797,706.724L1765.89,656.718L1751.18,656.718Z" style="fill:white;fill-rule:nonzero;"/>
                </g>
                <g transform="matrix(1.371,0,0,1.371,233.276,340.56)">
                    <path d="M1700.01,706.724L1624.96,706.724L1624.96,576.405L1700.01,576.405L1700.01,599.046L1652.59,599.046L1652.59,627.659L1696.72,627.659L1696.72,650.3L1652.59,650.3L1652.59,683.905L1700.01,683.905L1700.01,706.724Z" style="fill:white;fill-rule:nonzero;"/>
                </g>
                <g transform="matrix(1.371,0,0,1.371,233.276,340.56)">
                    <path d="M1584.31,576.405L1612.21,576.405L1567.91,706.724L1537.78,706.724L1493.57,576.405L1521.47,576.405L1545.98,653.955C1547.35,658.53 1548.76,663.864 1550.22,669.955C1551.67,676.046 1552.58,680.28 1552.93,682.657C1553.59,677.19 1555.82,667.622 1559.62,653.955L1584.31,576.405Z" style="fill:white;fill-rule:nonzero;"/>
                </g>
                <g transform="matrix(1.371,0,0,1.371,233.276,340.56)">
                    <path d="M1488.39,641.386C1488.39,662.957 1483.05,679.537 1472.35,691.125C1461.65,702.713 1446.32,708.507 1426.36,708.507C1406.39,708.507 1391.06,702.713 1380.36,691.125C1369.66,679.537 1364.32,662.898 1364.32,641.208C1364.32,619.518 1369.68,602.953 1380.4,591.514C1391.13,580.074 1406.51,574.355 1426.53,574.355C1446.56,574.355 1461.88,580.119 1472.48,591.647C1483.09,603.176 1488.39,619.755 1488.39,641.386ZM1393.29,641.386C1393.29,655.945 1396.05,666.909 1401.58,674.278C1407.1,681.647 1415.36,685.331 1426.36,685.331C1448.4,685.331 1459.42,670.683 1459.42,641.386C1459.42,612.03 1448.46,597.352 1426.53,597.352C1415.54,597.352 1407.25,601.051 1401.66,608.45C1396.08,615.848 1393.29,626.827 1393.29,641.386Z" style="fill:white;fill-rule:nonzero;"/>
                </g>
                <g transform="matrix(1.371,0,0,1.371,233.276,340.56)">
                    <path d="M1340.96,706.724L1305.84,706.724L1249.15,608.138L1248.34,608.138C1249.47,625.549 1250.04,637.969 1250.04,645.397L1250.04,706.724L1225.35,706.724L1225.35,576.405L1260.2,576.405L1316.8,674.01L1317.42,674.01C1316.53,657.074 1316.09,645.1 1316.09,638.088L1316.09,576.405L1340.96,576.405L1340.96,706.724Z" style="fill:white;fill-rule:nonzero;"/>
                </g>
                <g transform="matrix(1.371,0,0,1.371,233.276,340.56)">
                    <path d="M1196.19,706.724L1161.08,706.724L1104.38,608.138L1103.58,608.138C1104.71,625.549 1105.28,637.969 1105.28,645.397L1105.28,706.724L1080.58,706.724L1080.58,576.405L1115.44,576.405L1172.04,674.01L1172.66,674.01C1171.77,657.074 1171.33,645.1 1171.33,638.088L1171.33,576.405L1196.19,576.405L1196.19,706.724Z" style="fill:white;fill-rule:nonzero;"/>
                </g>
                <g transform="matrix(1.371,0,0,1.371,233.276,340.56)">
                    <path d="M1038.06,706.724L1028.61,675.704L981.102,675.704L971.654,706.724L941.882,706.724L987.877,575.87L1021.66,575.87L1067.83,706.724L1038.06,706.724ZM1022.02,652.528C1013.28,624.42 1008.36,608.524 1007.26,604.84C1006.17,601.155 1005.38,598.244 1004.9,596.104C1002.94,603.711 997.325,622.519 988.055,652.528L1022.02,652.528Z" style="fill:white;fill-rule:nonzero;"/>
                </g>
                <g id="Schriftzug-H" serif:id="Schriftzug H" transform="matrix(1,0,0,1,469,140.97)">
                    <path d="M928,1118.03L987.996,1118.03L987.994,1208.63L1029,1185.03L1029,989.81L988,989.81L987.997,1087.03L928,1087.03L928,989.81L886,989.81L886,1300.99L928,1276.66L928,1118.03Z" style="fill:white;"/>
                </g>
            </g>
            <g id="Mittellinie" transform="matrix(0.937242,0,0,1,45.2942,265.157)">
                <path d="M3518.29,802L1319.85,802L1260.83,834L3459.61,834L3518.29,802Z" style="fill:rgb(10,158,0);"/>
            </g>
            <g id="Text--TableTopTreff-" serif:id="Text &quot;TableTopTreff&quot;" transform="matrix(1.371,0,0,1.371,238.406,365.1)">
                <g transform="matrix(1,0,0,1,4.54092,-0.590767)">
                    <path d="M2212.27,468L2185.08,468L2185.08,337.681L2259.78,337.681L2259.78,360.322L2212.27,360.322L2212.27,393.927L2256.48,393.927L2256.48,416.479L2212.27,416.479L2212.27,468Z" style="fill:white;fill-rule:nonzero;"/>
                </g>
                <g transform="matrix(1,0,0,1,4.54092,-0.590767)">
                    <path d="M2115.73,468L2088.54,468L2088.54,337.681L2163.24,337.681L2163.24,360.322L2115.73,360.322L2115.73,393.927L2159.94,393.927L2159.94,416.479L2115.73,416.479L2115.73,468Z" style="fill:white;fill-rule:nonzero;"/>
                </g>
                <g transform="matrix(1,0,0,1,4.54092,-0.590767)">
                    <path d="M2065.01,468L1989.95,468L1989.95,337.681L2065.01,337.681L2065.01,360.322L2017.59,360.322L2017.59,388.935L2061.71,388.935L2061.71,411.576L2017.59,411.576L2017.59,445.181L2065.01,445.181L2065.01,468Z" style="fill:white;fill-rule:nonzero;"/>
                </g>
                <g transform="matrix(1,0,0,1,4.54092,-0.590767)">
                    <path d="M1900.72,395.531L1909.64,395.531C1918.37,395.531 1924.82,394.075 1928.98,391.163C1933.14,388.252 1935.22,383.676 1935.22,377.436C1935.22,371.256 1933.1,366.859 1928.85,364.244C1924.6,361.629 1918.02,360.322 1909.1,360.322L1900.72,360.322L1900.72,395.531ZM1900.72,417.994L1900.72,468L1873.09,468L1873.09,337.681L1911.06,337.681C1928.77,337.681 1941.88,340.905 1950.37,347.352C1958.87,353.8 1963.12,363.59 1963.12,376.723C1963.12,384.389 1961.01,391.208 1956.79,397.18C1952.57,403.152 1946.6,407.832 1938.87,411.219C1958.48,440.516 1971.26,459.443 1977.2,468L1946.54,468L1915.43,417.994L1900.72,417.994Z" style="fill:white;fill-rule:nonzero;"/>
                </g>
                <g id="T--3-" serif:id="T (3)" transform="matrix(0.52608,0,0,0.729395,1387.4,-359.567)">
                    <path d="M1031.83,905.03L954.961,937.03L836.964,937.03L836.416,1123.15L807.416,1135.3L777.429,1123.2L777,937.03L599.61,937.03L676.171,905.03L1031.83,905.03Z" style="fill:white;"/>
                </g>
                <g transform="matrix(1,0,0,1,-7.41249,0.133706)">
                    <path d="M1657.4,399.008L1666.49,399.008C1674.99,399.008 1681.34,397.329 1685.56,393.971C1689.78,390.614 1691.89,385.726 1691.89,379.308C1691.89,372.831 1690.12,368.047 1686.59,364.957C1683.05,361.867 1677.51,360.322 1669.96,360.322L1657.4,360.322L1657.4,399.008ZM1719.79,378.328C1719.79,392.352 1715.41,403.078 1706.64,410.506C1697.88,417.934 1685.41,421.649 1669.25,421.649L1657.4,421.649L1657.4,468L1629.76,468L1629.76,337.681L1671.39,337.681C1687.2,337.681 1699.22,341.083 1707.45,347.887C1715.68,354.691 1719.79,364.838 1719.79,378.328Z" style="fill:white;fill-rule:nonzero;"/>
                </g>
                <g transform="matrix(1,0,0,1,-7.41249,0.133706)">
                    <path d="M1606.41,402.662C1606.41,424.233 1601.06,440.813 1590.36,452.401C1579.66,463.989 1564.33,469.783 1544.37,469.783C1524.4,469.783 1509.07,463.989 1498.37,452.401C1487.67,440.813 1482.33,424.174 1482.33,402.484C1482.33,380.794 1487.69,364.229 1498.42,352.79C1509.14,341.35 1524.52,335.631 1544.54,335.631C1564.57,335.631 1579.89,341.395 1590.5,352.923C1601.1,364.452 1606.41,381.032 1606.41,402.662ZM1511.3,402.662C1511.3,417.221 1514.06,428.185 1519.59,435.554C1525.11,442.923 1533.37,446.607 1544.37,446.607C1566.41,446.607 1577.44,431.959 1577.44,402.662C1577.44,373.306 1566.47,358.628 1544.54,358.628C1533.55,358.628 1525.26,362.327 1519.67,369.726C1514.09,377.124 1511.3,388.103 1511.3,402.662Z" style="fill:white;fill-rule:nonzero;"/>
                </g>
                <g id="T--2-" serif:id="T (2)" transform="matrix(0.52608,0,0,0.729395,997.741,-359.567)">
                    <path d="M1035.64,905.03L958.904,937.03L836.964,937.03L836.483,1123.19L807.494,1135.3L777.494,1123.19L777,937.03L599.479,937.03L676.171,905.03L1035.64,905.03Z" style="fill:white;"/>
                </g>
                <g transform="matrix(1,0,0,1,-14.0104,-0.155869)">
                    <path d="M1324.93,468L1249.88,468L1249.88,337.681L1324.93,337.681L1324.93,360.322L1277.51,360.322L1277.51,388.935L1321.64,388.935L1321.64,411.576L1277.51,411.576L1277.51,445.181L1324.93,445.181L1324.93,468Z" style="fill:white;fill-rule:nonzero;"/>
                </g>
                <g transform="matrix(1,0,0,1,-14.0104,-0.155869)">
                    <path d="M1150.4,468L1150.4,337.681L1178.03,337.681L1178.03,445.181L1230.89,445.181L1230.89,468L1150.4,468Z" style="fill:white;fill-rule:nonzero;"/>
                </g>
                <g transform="matrix(1,0,0,1,-14.0104,-0.155869)">
                    <path d="M1031.4,337.681L1071.96,337.681C1090.44,337.681 1103.85,340.311 1112.2,345.57C1120.55,350.829 1124.73,359.193 1124.73,370.662C1124.73,378.447 1122.9,384.835 1119.24,389.826C1115.59,394.818 1110.73,397.819 1104.67,398.829L1104.67,399.721C1112.93,401.563 1118.89,405.01 1122.54,410.061C1126.2,415.112 1128.02,421.827 1128.02,430.206C1128.02,442.091 1123.73,451.361 1115.14,458.017C1106.56,464.672 1094.89,468 1080.16,468L1031.4,468L1031.4,337.681ZM1059.03,389.292L1075.08,389.292C1082.56,389.292 1087.99,388.133 1091.34,385.815C1094.7,383.498 1096.38,379.665 1096.38,374.316C1096.38,369.325 1094.55,365.744 1090.9,363.575C1087.24,361.406 1081.46,360.322 1073.56,360.322L1059.03,360.322L1059.03,389.292ZM1059.03,411.219L1059.03,445.181L1077.04,445.181C1084.64,445.181 1090.26,443.725 1093.88,440.813C1097.51,437.901 1099.32,433.444 1099.32,427.442C1099.32,416.627 1091.6,411.219 1076.14,411.219L1059.03,411.219Z" style="fill:white;fill-rule:nonzero;"/>
                </g>
                <g transform="matrix(1,0,0,1,-14.0104,-0.155869)">
                    <path d="M988.876,468L979.427,436.98L931.917,436.98L922.468,468L892.696,468L938.691,337.146L972.475,337.146L1018.65,468L988.876,468ZM972.831,413.804C964.096,385.696 959.178,369.8 958.079,366.116C956.979,362.431 956.192,359.52 955.717,357.38C953.756,364.987 948.14,383.795 938.87,413.804L972.831,413.804Z" style="fill:white;fill-rule:nonzero;"/>
                </g>
                <g id="T--1-" serif:id="T (1)" transform="matrix(0.52608,0,0,0.729395,405.472,-359.567)">
                    <path d="M1035.64,905.03L958.904,937.03L836.964,937.03L836.483,1123.32L807.494,1135.3L777.483,1123.2L777,937.03L599.915,937.03L676.171,905.03L1035.64,905.03Z" style="fill:white;"/>
                </g>
            </g>
        </g>
    </g>
</svg>
